<svg xmlns="http://www.w3.org/2000/svg" viewBox="0 0 64 64" role="img" aria-labelledby="title desc">
  <title id="title">WTRON mark</title>
  <desc id="desc">Original geometric WTRON wallet mark with connected transfer nodes.</desc>
  <defs>
    <linearGradient
      id="wtron-mark-fill"
      x1="12"
      y1="8"
      x2="52"
      y2="56"
      gradientUnits="userSpaceOnUse"
    >
      <stop stop-color="#6ee7b7" />
      <stop offset=".58" stop-color="#10b981" />
      <stop offset="1" stop-color="#047857" />
    </linearGradient>
    <linearGradient
      id="wtron-mark-edge"
      x1="16"
      y1="12"
      x2="48"
      y2="52"
      gradientUnits="userSpaceOnUse"
    >
      <stop stop-color="#ecfdf5" stop-opacity=".88" />
      <stop offset="1" stop-color="#a7f3d0" stop-opacity=".18" />
    </linearGradient>
  </defs>
  <path
    fill="#03130e"
    d="M32 4.8 54 16.9v20.2c0 10.6-7.8 18.2-22 22.1C17.8 55.3 10 47.7 10 37.1V16.9L32 4.8Z"
  />
  <path
    fill="url(#wtron-mark-fill)"
    d="M32 8.5 50.6 18.8v17.8c0 8.6-6.4 14.8-18.6 18.5-12.2-3.7-18.6-9.9-18.6-18.5V18.8L32 8.5Z"
  />
  <path
    fill="#03130e"
    fill-opacity=".94"
    d="M18.8 24.5h6.3l5 14.5 5-14.5h4.8l5 14.5 5.1-14.5h5.2L46.4 46h-4.9l-4.1-11.7L33.2 46h-5.8l-4.2-11.7L19.1 46h-4.9l4.6-21.5Z"
  />
  <path
    fill="url(#wtron-mark-edge)"
    d="M19.7 20.7 32 13.8l12.3 6.9-12.3 5-12.3-5Zm7.9.1 4.4 1.8 4.4-1.8-4.4-2.5-4.4 2.5Z"
  />
  <circle cx="18.8" cy="24.5" r="2.8" fill="#ecfdf5" />
  <circle cx="32" cy="39" r="2.8" fill="#ecfdf5" />
  <circle cx="50" cy="24.5" r="2.8" fill="#ecfdf5" />
</svg>
